<svg width="14" height="14" viewBox="0 0 14 14" fill="none" xmlns="http://www.w3.org/2000/svg">
<path fill-rule="evenodd" clip-rule="evenodd" d="M2.33331 1.16663C1.85006 1.16663 1.45831 1.55838 1.45831 2.04163V4.66663V5.83329V8.16663V9.33329V11.9583C1.45831 12.4415 1.85006 12.8333 2.33331 12.8333H11.6666C12.1499 12.8333 12.5416 12.4415 12.5416 11.9583V9.33329V8.16663V5.83329V4.66663V2.04163C12.5416 1.55838 12.1499 1.16663 11.6666 1.16663H2.33331ZM11.375 8.16663H2.62498V5.83329H11.375V8.16663ZM2.62498 11.6666V9.33329H11.375V11.6666H2.62498ZM11.375 4.66663V2.33329H2.62498V4.66663H11.375ZM4.38081 9.91663H3.20831V11.0891H4.38081V9.91663ZM3.20831 2.91663H4.38081V4.08913H3.20831V2.91663ZM4.38081 6.41663H3.20831V7.58913H4.38081V6.41663Z" fill="#4E5969"/>
</svg>
