<svg width="30" height="32" viewBox="0 0 30 32" fill="none" xmlns="http://www.w3.org/2000/svg">
<path d="M15.4105 0C15.5505 0.0119999 15.6905 0.0399997 15.8238 0.086666L29.1571 4.93729C29.403 5.01369 29.6179 5.16721 29.7699 5.37514C29.9219 5.58308 30.0029 5.8344 30.0011 6.09195V15.0612C30.0011 25.7304 18.3505 30.4171 15.4945 31.8744C15.3296 31.957 15.1476 32 14.9632 32C14.7787 32 14.5968 31.957 14.4319 31.8744C11.5719 30.4171 0.667969 25.7811 0.667969 15.1252V6.12395C0.670405 5.87111 0.750328 5.6251 0.896955 5.41911C1.04358 5.21312 1.24986 5.05705 1.48796 4.97196L15.0118 0.086666C15.1398 0.041333 15.2745 0.0133332 15.4105 0ZM15.4105 2.67598L3.12528 6.98794V15.1252C3.12528 23.8465 11.9412 27.7091 14.9599 29.3758C18.0172 27.7091 27.4584 23.9185 27.4584 15.1025V6.95594L15.4105 2.67598ZM15.3345 6.66661C16.6335 6.66533 17.8883 7.13819 18.8635 7.99643C19.8386 8.85468 20.4669 10.0393 20.6306 11.328C20.7942 12.6166 20.482 13.9207 19.7523 14.9955C19.0227 16.0702 17.9259 16.8417 16.6678 17.1652V22.6665C16.6678 23.0201 16.5274 23.3592 16.2773 23.6093C16.0273 23.8593 15.6881 23.9998 15.3345 23.9998C14.9809 23.9998 14.6418 23.8593 14.3917 23.6093C14.1417 23.3592 14.0012 23.0201 14.0012 22.6665V17.1652C12.7472 16.8376 11.6554 16.0647 10.9295 14.991C10.2036 13.9172 9.89335 12.616 10.0566 11.3303C10.2199 10.0445 10.8456 8.86217 11.8168 8.00397C12.7881 7.14577 14.0384 6.67039 15.3345 6.66661ZM15.3345 9.33325C14.9843 9.33325 14.6376 9.40223 14.314 9.53624C13.9905 9.67025 13.6965 9.86668 13.4489 10.1143C13.2013 10.3619 13.0049 10.6559 12.8709 10.9794C12.7368 11.303 12.6679 11.6497 12.6679 11.9999C12.6679 12.3501 12.7368 12.6968 12.8709 13.0204C13.0049 13.3439 13.2013 13.6379 13.4489 13.8855C13.6965 14.1331 13.9905 14.3295 14.314 14.4636C14.6376 14.5976 14.9843 14.6665 15.3345 14.6665C16.0418 14.6665 16.72 14.3856 17.2201 13.8855C17.7202 13.3854 18.0012 12.7071 18.0012 11.9999C18.0012 11.2927 17.7202 10.6144 17.2201 10.1143C16.72 9.6142 16.0418 9.33325 15.3345 9.33325Z" fill="#F77234"/>
</svg>
