<svg width="24" height="24" viewBox="0 0 24 24" fill="none" xmlns="http://www.w3.org/2000/svg">
<path fill-rule="evenodd" clip-rule="evenodd" d="M9.59757 3.50051C10.2796 2.77302 11.5001 3.25566 11.5001 4.25285L11.5001 7.49997C17.299 7.49997 22.0001 12.201 22.0001 18C22.0001 18.0827 21.9991 18.1653 21.9972 18.2476C21.9768 19.1253 20.9227 19.5542 20.2942 18.9471C18.4043 17.1215 15.8342 16 13.0001 16C12.4903 16 11.9895 16.0362 11.5001 16.1062V19.7471C11.5001 20.7443 10.2796 21.2269 9.59757 20.4994L2.59112 13.0259C2.05019 12.4489 2.05019 11.551 2.59112 10.9741L9.59757 3.50051ZM9.50006 6.52875L4.37079 12L9.50006 17.4712V14.4699L10.2836 14.2962C11.1591 14.1021 12.0682 14 13.0001 14C15.4899 14 17.8107 14.7287 19.7595 15.9836C18.8542 12.2625 15.4997 9.49997 11.5001 9.49997C11.1971 9.49997 10.8982 9.51578 10.6041 9.54655L9.50006 9.66204V6.52875Z" fill="#0FC6C2"/>
</svg>
