<svg width="16" height="16" viewBox="0 0 16 16" fill="none" xmlns="http://www.w3.org/2000/svg">
<g clip-path="url(#clip0_202376_330918)">
<path d="M15.2151 1.48192C15.3003 1.38981 15.3465 1.26831 15.3441 1.14287C15.3417 1.01743 15.2908 0.897793 15.2021 0.809031C15.1135 0.72027 14.9939 0.669272 14.8685 0.666726C14.743 0.66418 14.6215 0.710283 14.5293 0.795373L13.385 1.93962C13.3781 1.94624 13.3718 1.95342 13.3661 1.96108C12.5881 1.35013 11.6134 1.04518 10.626 1.10381C9.63861 1.16244 8.70684 1.5806 8.00669 2.27932L6.8653 3.42357L6.75087 3.538L6.77197 3.55945C6.7289 3.64967 6.71476 3.75099 6.73146 3.84956C6.74817 3.94813 6.79491 4.03913 6.8653 4.11012L11.8996 9.14125C11.9705 9.21209 12.0614 9.25937 12.1601 9.27665C12.2587 9.29393 12.3603 9.28036 12.451 9.23779L12.4718 9.25567L13.7301 8.00057C14.43 7.30182 14.8493 6.37065 14.9086 5.38345C14.9679 4.39625 14.6631 3.42157 14.0519 2.64405C14.0603 2.63812 14.0676 2.63088 14.0737 2.6226L15.2198 1.48192H15.2176H15.2151ZM13.0417 7.31402L12.2397 8.115L7.89226 3.76685L8.69324 2.96587C9.27311 2.40523 10.05 2.09485 10.8566 2.10163C11.6632 2.10841 12.4348 2.43181 13.0051 3.00213C13.5755 3.57245 13.899 4.34403 13.9058 5.15058C13.9127 5.95714 13.6023 6.7341 13.0417 7.31402ZM9.16309 11.8731L7.90406 10.618L9.04831 9.47379C9.11006 9.4138 9.15481 9.33851 9.17798 9.2556C9.20116 9.17268 9.20195 9.08511 9.18026 9.00179C9.15843 8.91843 9.11482 8.84238 9.0539 8.78145C8.99297 8.72051 8.91693 8.67688 8.83357 8.65504C8.75022 8.6332 8.66256 8.63394 8.57958 8.65717C8.4966 8.6804 8.4213 8.7253 8.3614 8.78724L7.21715 9.93149L6.0729 8.78724L7.21715 7.64299C7.30575 7.55176 7.35483 7.42929 7.35376 7.30212C7.35269 7.17495 7.30156 7.05332 7.21143 6.96359C7.12118 6.87462 6.99991 6.82415 6.87318 6.82282C6.74645 6.82149 6.62415 6.86939 6.53203 6.95644L5.38778 8.10069L4.12875 6.84202C4.05752 6.77164 3.96632 6.72495 3.86758 6.70831C3.76884 6.69168 3.66737 6.7059 3.57701 6.74905L3.55627 6.72759L2.29831 7.98627C1.59843 8.68502 1.17913 9.61619 1.11982 10.6034C1.06051 11.5906 1.36531 12.5653 1.97649 13.3428C1.96898 13.3499 1.96147 13.3535 1.95468 13.3607L0.80864 14.5049C0.717812 14.5961 0.666867 14.7195 0.666992 14.8482C0.667118 14.9768 0.718303 15.1002 0.809308 15.1912C0.900313 15.2821 1.0237 15.3332 1.15236 15.3333C1.28103 15.3334 1.40446 15.2823 1.49555 15.1915L2.6398 14.0472C2.64766 14.0401 2.65196 14.0329 2.65875 14.0258C3.4371 14.6363 4.41205 14.9406 5.39947 14.8813C6.3869 14.822 7.31843 14.4032 8.01813 13.7039L9.16238 12.5633L9.16452 12.5597L9.27895 12.4453L9.25678 12.4238C9.3 12.3343 9.31434 12.2336 9.29781 12.1356C9.28128 12.0376 9.23471 11.9471 9.16452 11.8767L9.16309 11.8731ZM7.33158 13.021C7.04854 13.3173 6.70912 13.5541 6.33326 13.7175C5.95741 13.8808 5.5527 13.9673 5.14292 13.972C4.73313 13.9767 4.32655 13.8995 3.94705 13.7448C3.56755 13.5901 3.2228 13.3611 2.93304 13.0713C2.64329 12.7815 2.41438 12.4368 2.25977 12.0572C2.10516 11.6777 2.02797 11.2711 2.03273 10.8613C2.03749 10.4515 2.12411 10.0469 2.2875 9.67102C2.45088 9.29519 2.68774 8.95581 2.98415 8.67282L3.78512 7.87184L8.13255 12.2164L7.33158 13.0174V13.021Z" fill="#4E5969" stroke="#4E5969" stroke-width="0.4"/>
</g>
<defs>
<clipPath id="clip0_202376_330918">
<rect width="16" height="16" fill="white"/>
</clipPath>
</defs>
</svg>
