<svg width="16" height="16" viewBox="0 0 16 16" fill="none" xmlns="http://www.w3.org/2000/svg">
<path d="M13.6555 1.33334H2.45106C2.34806 1.33334 2.24608 1.35363 2.15092 1.39305C2.05576 1.43246 1.9693 1.49023 1.89647 1.56306C1.82364 1.63589 1.76587 1.72236 1.72645 1.81751C1.68703 1.91267 1.66675 2.01466 1.66675 2.11766V13.8824C1.66675 14.0904 1.74938 14.2899 1.89647 14.437C2.04356 14.584 2.24305 14.6667 2.45106 14.6667H13.6555C13.8636 14.6667 14.0631 14.584 14.2101 14.437C14.3572 14.2899 14.4399 14.0904 14.4399 13.8824V2.11766C14.4399 1.90964 14.3572 1.71015 14.2101 1.56306C14.0631 1.41598 13.8636 1.33334 13.6555 1.33334V1.33334ZM13.4315 13.6583H2.67515V2.34175H13.4315V13.6583Z" fill="#0FC6C2"/>
<path d="M4.69189 3.27731H11.4146V4.34174H4.69189V3.27731ZM10.451 7.38376H9.04484L9.60506 5.93278C9.63088 5.8716 9.64121 5.80499 9.63511 5.73886C9.62901 5.67274 9.60668 5.60914 9.5701 5.55372C9.53352 5.4983 9.48382 5.45276 9.42542 5.42116C9.36702 5.38955 9.30172 5.37286 9.23531 5.37255H7.25212C7.17517 5.37234 7.0998 5.39446 7.03517 5.43622C6.97054 5.47799 6.9194 5.5376 6.88797 5.60785L5.28573 9.22129C5.25859 9.28194 5.24708 9.34843 5.25224 9.41468C5.25741 9.48092 5.27909 9.54482 5.3153 9.60053C5.35151 9.65624 5.40111 9.702 5.45955 9.73361C5.518 9.76523 5.58343 9.7817 5.64988 9.78152H7.1961L6.85436 12.5378C6.8423 12.6274 6.86114 12.7185 6.90775 12.7959C6.95436 12.8734 7.02598 12.9327 7.11079 12.964C7.19561 12.9953 7.28856 12.9968 7.37433 12.9682C7.46011 12.9396 7.53358 12.8827 7.58265 12.8067L10.7815 8.0056C10.8224 7.9457 10.8461 7.87576 10.8501 7.80336C10.854 7.73096 10.8382 7.65885 10.8041 7.59482C10.7701 7.5308 10.7192 7.47729 10.657 7.44009C10.5947 7.40289 10.5235 7.38341 10.451 7.38376V7.38376ZM7.86837 10.7115L8.05324 9.34454C8.05963 9.29383 8.05511 9.24235 8.03997 9.19353C8.02484 9.14472 7.99944 9.09971 7.96549 9.06151C7.93153 9.02331 7.88981 8.99281 7.8431 8.97206C7.7964 8.95131 7.7458 8.94078 7.6947 8.94118H6.43979L7.56024 6.42577H8.61346L8.05324 7.73109C8.0311 7.78582 8.02281 7.84516 8.02912 7.90385C8.03542 7.96255 8.05612 8.01878 8.08937 8.06755C8.12263 8.11632 8.16741 8.15613 8.21974 8.18344C8.27208 8.21075 8.33035 8.22471 8.38937 8.22409H9.50982L7.86837 10.7115Z" fill="#0FC6C2"/>
</svg>
