<svg width="14" height="14" viewBox="0 0 14 14" fill="none" xmlns="http://www.w3.org/2000/svg">
<path fill-rule="evenodd" clip-rule="evenodd" d="M3.79167 2.91663C3.79167 2.59446 4.05283 2.33329 4.375 2.33329C4.69717 2.33329 4.95833 2.59446 4.95833 2.91663C4.95833 3.23879 4.69717 3.49996 4.375 3.49996C4.05283 3.49996 3.79167 3.23879 3.79167 2.91663ZM4.375 1.16663C3.4085 1.16663 2.625 1.95013 2.625 2.91663C2.625 3.67859 3.11197 4.32681 3.79167 4.56705V9.43287C3.11197 9.67311 2.625 10.3213 2.625 11.0833C2.625 12.0498 3.4085 12.8333 4.375 12.8333C5.3415 12.8333 6.125 12.0498 6.125 11.0833C6.125 10.3213 5.63803 9.67311 4.95833 9.43287V8.75149C4.96097 8.74109 4.97493 8.7053 5.03675 8.63999C5.13058 8.54086 5.28991 8.42279 5.52982 8.286C5.8986 8.07573 6.35797 7.87439 6.87363 7.64837C7.0384 7.57615 7.20891 7.50141 7.38405 7.42306C8.07626 7.11339 8.82837 6.75154 9.40975 6.29765C9.94566 5.87927 10.4195 5.31633 10.4908 4.57029C11.1753 4.33268 11.6667 3.68204 11.6667 2.91663C11.6667 1.95013 10.8832 1.16663 9.91667 1.16663C8.95017 1.16663 8.16667 1.95013 8.16667 2.91663C8.16667 3.67084 8.64379 4.31363 9.31268 4.5596C9.25327 4.82197 9.06205 5.089 8.69181 5.37805C8.23413 5.73536 7.60082 6.04799 6.90762 6.35811C6.75782 6.42512 6.60399 6.49249 6.44921 6.56028C5.92246 6.79096 5.38479 7.02642 4.95833 7.26887V4.56705C5.63803 4.32681 6.125 3.67859 6.125 2.91663C6.125 1.95013 5.3415 1.16663 4.375 1.16663ZM4.95783 8.75473C4.95773 8.75474 4.95782 8.75357 4.95833 8.75149C4.95824 8.75352 4.95794 8.75472 4.95783 8.75473ZM9.33333 2.91663C9.33333 2.59446 9.5945 2.33329 9.91667 2.33329C10.2388 2.33329 10.5 2.59446 10.5 2.91663C10.5 3.23879 10.2388 3.49996 9.91667 3.49996C9.5945 3.49996 9.33333 3.23879 9.33333 2.91663ZM4.375 10.5C4.05283 10.5 3.79167 10.7611 3.79167 11.0833C3.79167 11.4055 4.05283 11.6666 4.375 11.6666C4.69717 11.6666 4.95833 11.4055 4.95833 11.0833C4.95833 10.7611 4.69717 10.5 4.375 10.5Z" fill="#4E5969"/>
</svg>
