<svg width="14" height="14" viewBox="0 0 14 14" fill="none" xmlns="http://www.w3.org/2000/svg">
<path fill-rule="evenodd" clip-rule="evenodd" d="M9.69269 10.5896L11.5888 12.4858L12.4138 11.6608L8.77017 8.01719C8.9429 7.71751 9.04171 7.36985 9.04171 6.99912C9.04171 5.87154 8.12763 4.95745 7.00005 4.95745C6.62931 4.95745 6.28165 5.05627 5.98197 5.22899L2.41118 1.6582L1.58622 2.48316L3.25877 4.15571C2.55877 4.79671 1.88317 5.67724 1.25425 6.69177L1.06372 6.99912L1.25425 7.30647C2.8668 9.90772 4.7718 11.3741 7.00005 11.3741C7.94798 11.3741 8.84781 11.1059 9.69269 10.5896ZM8.838 9.73494L7.92354 8.82048C7.64622 8.96137 7.33241 9.04078 7.00005 9.04078C5.87247 9.04078 4.95838 8.1267 4.95838 6.99912C4.95838 6.66676 5.0378 6.35295 5.17869 6.07562L4.08465 4.98158C3.55032 5.46205 2.99401 6.14725 2.44115 6.99858C3.90359 9.23478 5.43224 10.2075 7.00005 10.2075C7.62615 10.2075 8.23725 10.0545 8.838 9.73494ZM6.97688 7.87382C6.51204 7.86173 6.13743 7.48713 6.12535 7.02228L6.97688 7.87382ZM7.8675 7.11452C7.87248 7.07676 7.87505 7.03824 7.87505 6.99912C7.87505 6.51587 7.4833 6.12412 7.00005 6.12412C6.96092 6.12412 6.9224 6.12668 6.88464 6.13166L7.8675 7.11452ZM6.98124 2.62412L7.00005 2.62412C9.2283 2.62412 11.1333 4.09051 12.7458 6.69177L12.9364 6.99912L12.7458 7.30647C12.2129 8.16614 11.6517 8.89739 11.0596 9.493L10.2322 8.67044C10.6814 8.21866 11.1241 7.66312 11.5586 6.99909C10.0962 4.76329 8.56772 3.79079 7.00005 3.79079C6.66284 3.79079 6.34595 3.79208 6.06166 3.83801C5.77541 3.88425 5.60109 3.96471 5.50107 4.06236L4.68608 3.22755C5.0342 2.8877 5.48481 2.7494 5.87561 2.68627C6.2607 2.62406 6.66456 2.62409 6.98124 2.62412Z" fill="#4E5969"/>
</svg>
