<svg width="42" height="42" viewBox="0 0 42 42" fill="none" xmlns="http://www.w3.org/2000/svg">
<path d="M40.5 20C40.5 31.0457 31.5457 40 20.5 40C9.4543 40 0.5 31.0457 0.5 20C0.5 8.9543 9.4543 0 20.5 0C31.5457 0 40.5 8.9543 40.5 20Z" fill="#E8FFFB"/>
<g filter="url(#filter0_ii_202130_301059)">
<path fill-rule="evenodd" clip-rule="evenodd" d="M25.4175 11.0106H25.398H14.5C12.846 11.0106 11.5 12.3566 11.5 14.0106V17.0106V19.0106V26.0106C11.5 27.6646 12.846 29.0106 14.5 29.0106H26.5C28.154 29.0106 29.5 27.6646 29.5 26.0106V19.0106V17.0106V14.9865L25.4175 11.0106Z" fill="#0FC6C2"/>
</g>
<g filter="url(#filter1_f_202130_301059)">
<ellipse cx="20.8752" cy="27.1357" rx="8.625" ry="1.875" fill="#0FC6C2"/>
</g>
<path d="M27.4067 14.9863H29.4998L25.4067 11V12.9863C25.4067 14.0908 26.3022 14.9863 27.4067 14.9863Z" fill="#33D1C9"/>
<path d="M24.6252 22.0732H23.2502V20.0107H26.6877V22.0732H25.3127V24.1357H24.6252V22.0732ZM21.1877 19.3232V21.3857H14.3127V19.3232H21.1877ZM21.1877 24.1357H14.3127V22.0732H21.1877V24.1357ZM26.6877 18.6357H14.3127V16.5732H26.6877V18.6357ZM15.6877 17.2607V17.9482H16.3752V17.2607H15.6877ZM17.0627 17.2607V17.9482H17.7502V17.2607H17.0627ZM15.6877 20.0107V20.6982H16.3752V20.0107H15.6877ZM17.0627 20.0107V20.6982H17.7502V20.0107H17.0627ZM15.6877 22.7607V23.4482H16.3752V22.7607H15.6877ZM17.0627 22.7607V23.4482H17.7502V22.7607H17.0627ZM23.2502 23.4482H23.9377V24.1357H23.2502V23.4482ZM21.8752 23.4482H22.5627V24.1357H21.8752V23.4482Z" fill="white"/>
<defs>
<filter id="filter0_ii_202130_301059" x="11.5" y="4.89201" width="18" height="24.1185" filterUnits="userSpaceOnUse" color-interpolation-filters="sRGB">
<feFlood flood-opacity="0" result="BackgroundImageFix"/>
<feBlend mode="normal" in="SourceGraphic" in2="BackgroundImageFix" result="shape"/>
<feColorMatrix in="SourceAlpha" type="matrix" values="0 0 0 0 0 0 0 0 0 0 0 0 0 0 0 0 0 0 127 0" result="hardAlpha"/>
<feOffset dy="-6.11855"/>
<feGaussianBlur stdDeviation="3.82409"/>
<feComposite in2="hardAlpha" operator="arithmetic" k2="-1" k3="1"/>
<feColorMatrix type="matrix" values="0 0 0 0 0.0716667 0 0 0 0 0.136167 0 0 0 0 0.716667 0 0 0 0.35 0"/>
<feBlend mode="normal" in2="shape" result="effect1_innerShadow_202130_301059"/>
<feColorMatrix in="SourceAlpha" type="matrix" values="0 0 0 0 0 0 0 0 0 0 0 0 0 0 0 0 0 0 127 0" result="hardAlpha"/>
<feOffset dy="-2.29445"/>
<feGaussianBlur stdDeviation="1.52964"/>
<feComposite in2="hardAlpha" operator="arithmetic" k2="-1" k3="1"/>
<feColorMatrix type="matrix" values="0 0 0 0 1 0 0 0 0 1 0 0 0 0 1 0 0 0 0.25 0"/>
<feBlend mode="normal" in2="effect1_innerShadow_202130_301059" result="effect2_innerShadow_202130_301059"/>
</filter>
<filter id="filter1_f_202130_301059" x="0.250244" y="13.2607" width="41.2498" height="27.75" filterUnits="userSpaceOnUse" color-interpolation-filters="sRGB">
<feFlood flood-opacity="0" result="BackgroundImageFix"/>
<feBlend mode="normal" in="SourceGraphic" in2="BackgroundImageFix" result="shape"/>
<feGaussianBlur stdDeviation="6" result="effect1_foregroundBlur_202130_301059"/>
</filter>
</defs>
</svg>
