<svg width="16" height="16" viewBox="0 0 16 16" fill="none" xmlns="http://www.w3.org/2000/svg">
<path fill-rule="evenodd" clip-rule="evenodd" d="M2.66659 8.00001C2.66659 5.05449 5.0544 2.66668 7.99992 2.66668C10.9454 2.66668 13.3333 5.05449 13.3333 8.00001C13.3333 10.9455 10.9454 13.3333 7.99992 13.3333C5.0544 13.3333 2.66659 10.9455 2.66659 8.00001ZM7.99992 1.33334C4.31802 1.33334 1.33325 4.31811 1.33325 8.00001C1.33325 11.6819 4.31802 14.6667 7.99992 14.6667C11.6818 14.6667 14.6666 11.6819 14.6666 8.00001C14.6666 4.31811 11.6818 1.33334 7.99992 1.33334Z" fill="#0FC6C2"/>
<path d="M3.99992 6.66668H11.9999V8.00001H3.99992V6.66668Z" fill="#0FC6C2"/>
<path d="M3.99992 8.83334H5.99992V9.58334H3.99992V8.83334Z" fill="#0FC6C2"/>
<path d="M6.99992 8.83334H8.99992V9.58334H6.99992V8.83334Z" fill="#0FC6C2"/>
<path d="M9.99992 8.83334H11.9999V9.58334H9.99992V8.83334Z" fill="#0FC6C2"/>
</svg>
