<svg width="15" height="14" viewBox="0 0 15 14" fill="none" xmlns="http://www.w3.org/2000/svg">
<path fill-rule="evenodd" clip-rule="evenodd" d="M1.50293 2.91667C1.50293 2.27234 2.02526 1.75 2.6696 1.75H12.0029C12.6473 1.75 13.1696 2.27233 13.1696 2.91667V11.0833C13.1696 11.7277 12.6473 12.25 12.0029 12.25H2.6696C2.02526 12.25 1.50293 11.7277 1.50293 11.0833V2.91667ZM12.0029 2.91667L2.6696 2.91667V11.0833H12.0029V2.91667Z" fill="#4E5969"/>
<path d="M7.32953 4.97792C7.29967 4.9651 7.26767 4.9585 7.23535 4.9585H3.79004C3.75772 4.9585 3.72572 4.9651 3.69586 4.97792C3.66601 4.99075 3.63888 5.00955 3.61602 5.03324C3.59317 5.05694 3.57505 5.08508 3.56268 5.11604C3.55031 5.147 3.54395 5.18019 3.54395 5.2137V5.72412C3.54395 5.75764 3.55031 5.79082 3.56268 5.82178C3.57505 5.85275 3.59317 5.88088 3.61602 5.90458C3.63888 5.92828 3.66601 5.94708 3.69586 5.9599C3.72572 5.97273 3.75772 5.97933 3.79004 5.97933H5.02051V8.78662C5.02051 8.82014 5.02687 8.85332 5.03924 8.88429C5.05161 8.91525 5.06974 8.94338 5.09259 8.96708C5.11544 8.99078 5.14257 9.00958 5.17243 9.0224C5.20228 9.03523 5.23428 9.04183 5.2666 9.04183H5.75879C5.79111 9.04183 5.82311 9.03523 5.85296 9.0224C5.88282 9.00958 5.90995 8.99078 5.9328 8.96708C5.95566 8.94338 5.97378 8.91525 5.98615 8.88429C5.99852 8.85332 6.00488 8.82014 6.00488 8.78662V5.97933H7.23535C7.26767 5.97933 7.29967 5.97273 7.32953 5.9599C7.35938 5.94708 7.38651 5.92828 7.40937 5.90458C7.43222 5.88088 7.45035 5.85275 7.46271 5.82178C7.47508 5.79082 7.48145 5.75764 7.48145 5.72412V5.2137C7.48145 5.18019 7.47508 5.147 7.46271 5.11604C7.45035 5.08508 7.43222 5.05694 7.40937 5.03324C7.38651 5.00955 7.35938 4.99075 7.32953 4.97792Z" fill="#4E5969"/>
<path d="M11.3469 7.58533C11.3007 7.53747 11.2381 7.51058 11.1729 7.51058H8.71191C8.6796 7.51058 8.6476 7.51718 8.61774 7.53001C8.58788 7.54283 8.56075 7.56163 8.5379 7.58533C8.51505 7.60903 8.49692 7.63716 8.48455 7.66812C8.47218 7.69909 8.46582 7.73227 8.46582 7.76579V8.2762C8.46582 8.30972 8.47218 8.3429 8.48455 8.37387C8.49692 8.40483 8.51505 8.43297 8.5379 8.45666C8.56075 8.48036 8.58788 8.49916 8.61774 8.51199C8.6476 8.52481 8.6796 8.53141 8.71191 8.53141H11.1729C11.2052 8.53141 11.2372 8.52481 11.267 8.51199C11.2969 8.49916 11.324 8.48036 11.3469 8.45666C11.3697 8.43297 11.3878 8.40483 11.4002 8.37387C11.4126 8.3429 11.4189 8.30972 11.4189 8.2762V7.76579C11.4189 7.6981 11.393 7.63319 11.3469 7.58533Z" fill="#4E5969"/>
<path d="M10.3625 5.54366C10.3163 5.4958 10.2537 5.46891 10.1885 5.46891H8.71191C8.6796 5.46891 8.6476 5.47551 8.61774 5.48834C8.58788 5.50116 8.56075 5.51996 8.5379 5.54366C8.51505 5.56736 8.49692 5.59549 8.48455 5.62646C8.47218 5.65742 8.46582 5.69061 8.46582 5.72412V6.23454C8.46582 6.26805 8.47218 6.30124 8.48455 6.3322C8.49692 6.36316 8.51505 6.3913 8.5379 6.415C8.56075 6.4387 8.58788 6.45749 8.61774 6.47032C8.6476 6.48314 8.6796 6.48975 8.71191 6.48975H10.1885C10.2537 6.48975 10.3163 6.46286 10.3625 6.415C10.4086 6.36714 10.4346 6.30222 10.4346 6.23454V5.72412C10.4346 5.65644 10.4086 5.59152 10.3625 5.54366Z" fill="#4E5969"/>
</svg>
