<svg width="14" height="14" viewBox="0 0 14 14" fill="none" xmlns="http://www.w3.org/2000/svg">
<path d="M11.9485 1.16663H2.14459C2.05446 1.16663 1.96522 1.18438 1.88196 1.21887C1.7987 1.25335 1.72304 1.3039 1.65932 1.36763C1.59559 1.43136 1.54504 1.50701 1.51055 1.59027C1.47606 1.67354 1.45831 1.76278 1.45831 1.8529V12.147C1.45831 12.329 1.53062 12.5036 1.65932 12.6323C1.78802 12.761 1.96258 12.8333 2.14459 12.8333H11.9485C12.1305 12.8333 12.3051 12.761 12.4338 12.6323C12.5625 12.5036 12.6348 12.329 12.6348 12.147V1.8529C12.6348 1.67089 12.5625 1.49633 12.4338 1.36763C12.3051 1.23893 12.1305 1.16663 11.9485 1.16663V1.16663ZM11.7524 11.9509H2.34067V2.04898H11.7524V11.9509Z" fill="#4E5969"/>
<path d="M4.10535 2.86755H9.9877V3.79893H4.10535V2.86755ZM9.14456 6.46069H7.91417L8.40437 5.19108C8.42696 5.13755 8.43599 5.07927 8.43066 5.02141C8.42532 4.96355 8.40578 4.9079 8.37378 4.85941C8.34177 4.81091 8.29828 4.77107 8.24718 4.74342C8.19608 4.71576 8.13894 4.70116 8.08084 4.70089H6.34554C6.27821 4.7007 6.21227 4.72006 6.15571 4.7566C6.09916 4.79314 6.05442 4.84531 6.02692 4.90677L4.62495 8.06853C4.60121 8.12161 4.59113 8.17978 4.59565 8.23775C4.60017 8.29571 4.61914 8.35162 4.65083 8.40037C4.68251 8.44912 4.72591 8.48915 4.77705 8.51681C4.82819 8.54448 4.88544 8.55889 4.94358 8.55873H6.29652L5.9975 10.9705C5.98696 11.0489 6.00343 11.1286 6.04422 11.1963C6.08501 11.2641 6.14767 11.316 6.22188 11.3434C6.2961 11.3708 6.37743 11.3721 6.45248 11.3471C6.52753 11.3221 6.59182 11.2722 6.63476 11.2058L9.43378 7.00481C9.46952 6.95239 9.49026 6.8912 9.49374 6.82785C9.49723 6.7645 9.48333 6.7014 9.45355 6.64537C9.42378 6.58935 9.37925 6.54253 9.32479 6.50998C9.27033 6.47743 9.20801 6.46039 9.14456 6.46069V6.46069ZM6.88476 9.37246L7.04652 8.17638C7.05211 8.13201 7.04816 8.08696 7.03491 8.04425C7.02167 8.00153 6.99945 7.96215 6.96974 7.92872C6.94003 7.8953 6.90352 7.86862 6.86265 7.85046C6.82179 7.8323 6.77751 7.82309 6.7328 7.82344H5.63476L6.61515 5.62246H7.53672L7.04652 6.76461C7.02715 6.81249 7.0199 6.86442 7.02542 6.91578C7.03093 6.96713 7.04904 7.01633 7.07814 7.05901C7.10724 7.10169 7.14642 7.13652 7.19221 7.16041C7.23801 7.18431 7.28899 7.19653 7.34064 7.19599H8.32103L6.88476 9.37246Z" fill="#4E5969"/>
</svg>
