<svg width="18" height="18" viewBox="0 0 18 18" fill="none" xmlns="http://www.w3.org/2000/svg">
<path fill-rule="evenodd" clip-rule="evenodd" d="M4.125 7.65203C4.125 4.8567 6.32634 2.625 9 2.625C11.6737 2.625 13.875 4.8567 13.875 7.65203C13.875 8.25551 13.5993 9.04701 13.0913 9.95615C12.5937 10.8469 11.9204 11.7684 11.2319 12.6102C10.5458 13.4491 9.85757 14.1932 9.33988 14.7283C9.21575 14.8566 9.10165 14.9726 9 15.0749C8.89835 14.9726 8.78425 14.8566 8.66012 14.7283C8.14243 14.1932 7.45423 13.4491 6.76806 12.6102C6.07961 11.7684 5.4063 10.8469 4.90865 9.95615C4.40073 9.04701 4.125 8.25551 4.125 7.65203ZM8.48635 16.6715C8.48648 16.6716 8.48658 16.6717 9 16.125C9.51342 16.6717 9.51352 16.6716 9.51365 16.6715L9 17.1539L8.48635 16.6715ZM8.48635 16.6715L9 16.125L9.51365 16.6715L9.51509 16.6701L9.5188 16.6666L9.5322 16.654C9.54374 16.643 9.56046 16.6271 9.58201 16.6065C9.6251 16.5652 9.68753 16.505 9.76654 16.4276C9.92451 16.2728 10.149 16.0492 10.4179 15.7713C10.9549 15.2162 11.673 14.4402 12.3931 13.5598C13.1109 12.6821 13.8438 11.6848 14.4008 10.6877C14.9476 9.70909 15.375 8.64382 15.375 7.65203C15.375 4.06623 12.5395 1.125 9 1.125C5.46046 1.125 2.625 4.06623 2.625 7.65203C2.625 8.64382 3.0524 9.70909 3.59916 10.6877C4.1562 11.6848 4.88914 12.6821 5.60694 13.5598C6.32702 14.4402 7.04507 15.2162 7.58207 15.7713C7.85098 16.0492 8.07549 16.2728 8.23346 16.4276C8.31247 16.505 8.3749 16.5652 8.41799 16.6065L8.44022 16.6277L8.4678 16.654L8.4812 16.6666L8.48491 16.6701L8.48635 16.6715ZM7.875 7.125C7.875 6.50368 8.37868 6 9 6C9.62132 6 10.125 6.50368 10.125 7.125C10.125 7.74632 9.62132 8.25 9 8.25C8.37868 8.25 7.875 7.74632 7.875 7.125ZM9 4.5C7.55025 4.5 6.375 5.67525 6.375 7.125C6.375 8.57475 7.55025 9.75 9 9.75C10.4497 9.75 11.625 8.57475 11.625 7.125C11.625 5.67525 10.4497 4.5 9 4.5Z" fill="#0FC6C2"/>
</svg>
