<svg width="14" height="14" viewBox="0 0 14 14" fill="none" xmlns="http://www.w3.org/2000/svg">
<path fill-rule="evenodd" clip-rule="evenodd" d="M4.08325 4.22917C4.08325 2.61834 5.38909 1.3125 6.99992 1.3125C8.61075 1.3125 9.91659 2.61834 9.91659 4.22917V4.52083H11.3749C12.0193 4.52083 12.5416 5.04317 12.5416 5.6875V11.5208C12.5416 12.1652 12.0193 12.6875 11.3749 12.6875H2.62492C1.98059 12.6875 1.45825 12.1652 1.45825 11.5208V5.6875C1.45825 5.04317 1.98059 4.52083 2.62492 4.52083H4.08325V4.22917ZM5.24992 4.52083H8.74992V4.22917C8.74992 3.26267 7.96642 2.47917 6.99992 2.47917C6.03342 2.47917 5.24992 3.26267 5.24992 4.22917V4.52083ZM2.62492 5.6875V11.5208H11.3749V5.6875H2.62492ZM6.99992 8.02083C6.67775 8.02083 6.41659 8.282 6.41659 8.60417C6.41659 8.92633 6.67775 9.1875 6.99992 9.1875C7.32209 9.1875 7.58325 8.92633 7.58325 8.60417C7.58325 8.282 7.32209 8.02083 6.99992 8.02083ZM5.24992 8.60417C5.24992 7.63767 6.03342 6.85417 6.99992 6.85417C7.96642 6.85417 8.74992 7.63767 8.74992 8.60417C8.74992 9.57066 7.96642 10.3542 6.99992 10.3542C6.03342 10.3542 5.24992 9.57066 5.24992 8.60417Z" fill="#4E5969"/>
</svg>
