<svg width="40" height="40" viewBox="0 0 40 40" fill="none" xmlns="http://www.w3.org/2000/svg">
<path d="M40 20C40 31.0457 31.0457 40 20 40C8.9543 40 0 31.0457 0 20C0 8.9543 8.9543 0 20 0C31.0457 0 40 8.9543 40 20Z" fill="#F6F7FB"/>
<path d="M13.842 21.2188H11.5938C11.4031 21.2188 11.2203 21.143 11.0855 21.0082C10.9507 20.8734 10.875 20.6906 10.875 20.5V14.75H21.6562V20.5C21.6562 20.6906 21.5805 20.8734 21.4457 21.0082C21.3109 21.143 21.1281 21.2188 20.9375 21.2188H19.7027C19.5121 21.2188 19.3292 21.2945 19.1945 21.4293C19.0597 21.5641 18.9839 21.7469 18.9839 21.9375C18.9839 22.1281 19.0597 22.3109 19.1945 22.4457C19.3292 22.5805 19.5121 22.6562 19.7027 22.6562H20.9375C21.5094 22.6562 22.0578 22.4291 22.4622 22.0247C22.8666 21.6203 23.0938 21.0719 23.0938 20.5V12.5938C23.0938 12.0219 22.8666 11.4734 22.4622 11.0691C22.0578 10.6647 21.5094 10.4375 20.9375 10.4375H11.5938C11.0219 10.4375 10.4734 10.6647 10.0691 11.0691C9.66468 11.4734 9.4375 12.0219 9.4375 12.5938V20.5C9.4375 21.0719 9.66468 21.6203 10.0691 22.0247C10.4734 22.4291 11.0219 22.6562 11.5938 22.6562H13.842C14.0326 22.6562 14.2154 22.5805 14.3502 22.4457C14.485 22.3109 14.5608 22.1281 14.5608 21.9375C14.5608 21.7469 14.485 21.5641 14.3502 21.4293C14.2154 21.2945 14.0326 21.2188 13.842 21.2188ZM10.875 12.5938C10.875 12.4031 10.9507 12.2203 11.0855 12.0855C11.2203 11.9507 11.4031 11.875 11.5938 11.875H20.9375C21.1281 11.875 21.3109 11.9507 21.4457 12.0855C21.5805 12.2203 21.6562 12.4031 21.6562 12.5938V13.3125H10.875V12.5938Z" fill="#0FC6C2"/>
<path d="M27.4062 18.3438H25.365C25.1744 18.3438 24.9916 18.4195 24.8568 18.5543C24.722 18.6891 24.6462 18.8719 24.6462 19.0625C24.6462 19.2531 24.722 19.4359 24.8568 19.5707C24.9916 19.7055 25.1744 19.7812 25.365 19.7812H27.4062C27.5969 19.7812 27.7797 19.857 27.9145 19.9918C28.0493 20.1266 28.125 20.3094 28.125 20.5V26.25H17.3438V20.5C17.3438 20.3094 17.4195 20.1266 17.5543 19.9918C17.6891 19.857 17.8719 19.7812 18.0625 19.7812H19.4792C19.6698 19.7812 19.8526 19.7055 19.9874 19.5707C20.1222 19.4359 20.1979 19.2531 20.1979 19.0625C20.1979 18.8719 20.1222 18.6891 19.9874 18.5543C19.8526 18.4195 19.6698 18.3438 19.4792 18.3438H18.0625C17.4906 18.3438 16.9422 18.5709 16.5378 18.9753C16.1334 19.3797 15.9063 19.9281 15.9063 20.5V28.4062C15.9062 28.9781 16.1334 29.5266 16.5378 29.9309C16.9422 30.3353 17.4906 30.5625 18.0625 30.5625H27.4062C27.9781 30.5625 28.5266 30.3353 28.9309 29.9309C29.3353 29.5266 29.5625 28.9781 29.5625 28.4062V20.5C29.5625 19.9281 29.3353 19.3797 28.9309 18.9753C28.5266 18.5709 27.9781 18.3438 27.4062 18.3438ZM28.125 28.4062C28.125 28.5969 28.0493 28.7797 27.9145 28.9145C27.7797 29.0493 27.5969 29.125 27.4062 29.125H18.0625C17.8719 29.125 17.6891 29.0493 17.5543 28.9145C17.4195 28.7797 17.3438 28.5969 17.3438 28.4062V27.6875H28.125V28.4062Z" fill="#0FC6C2"/>
</svg>
