<svg width="14" height="14" viewBox="0 0 14 14" fill="none" xmlns="http://www.w3.org/2000/svg">
<path fill-rule="evenodd" clip-rule="evenodd" d="M1.25425 6.69265C2.8668 4.09139 4.7718 2.625 7.00005 2.625C9.2283 2.625 11.1333 4.09139 12.7458 6.69265L12.9364 7L12.7458 7.30735C11.1333 9.90861 9.2283 11.375 7.00005 11.375C4.7718 11.375 2.8668 9.90861 1.25425 7.30735L1.06372 7L1.25425 6.69265ZM2.4415 7C3.90384 9.23581 5.43236 10.2083 7.00005 10.2083C8.56773 10.2083 10.0963 9.23581 11.5586 7C10.0963 4.76418 8.56773 3.79167 7.00005 3.79167C5.43236 3.79167 3.90384 4.76418 2.4415 7ZM7.00005 6.125C6.5168 6.125 6.12505 6.51675 6.12505 7C6.12505 7.48325 6.5168 7.875 7.00005 7.875C7.4833 7.875 7.87505 7.48325 7.87505 7C7.87505 6.51675 7.4833 6.125 7.00005 6.125ZM4.95838 7C4.95838 5.87242 5.87247 4.95833 7.00005 4.95833C8.12763 4.95833 9.04171 5.87242 9.04171 7C9.04171 8.12758 8.12763 9.04167 7.00005 9.04167C5.87247 9.04167 4.95838 8.12758 4.95838 7Z" fill="#4E5969"/>
</svg>
