<svg width="41" height="40" viewBox="0 0 41 40" fill="none" xmlns="http://www.w3.org/2000/svg">
<path d="M40.8334 20C40.8334 31.0457 31.8791 40 20.8334 40C9.78768 40 0.833374 31.0457 0.833374 20C0.833374 8.95431 9.78768 0 20.8334 0C31.8791 0 40.8334 8.95431 40.8334 20Z" fill="#F6F7FB"/>
<path d="M23.1974 26.9521C22.4174 26.9521 21.6134 26.8321 20.8934 26.6041C19.1894 26.0761 18.0374 25.0561 17.3534 24.3001L18.0734 23.6641C18.6614 24.3361 19.6814 25.2241 21.1694 25.6921C21.8054 25.8961 22.5014 25.9921 23.1854 25.9921C24.9614 25.9921 26.3774 25.2961 27.2534 24.7081L27.7814 25.5121C26.8094 26.1721 25.2134 26.9521 23.1974 26.9521Z" fill="#0FC6C2"/>
<path d="M20.8934 28.752C18.7334 28.752 16.6334 27.996 14.9774 26.628L14.8934 26.556L15.4934 25.812L15.5774 25.884C17.0654 27.1199 18.9494 27.792 20.8814 27.792C25.3094 27.792 29.1974 23.904 29.1974 19.476C29.1974 14.892 25.4654 11.16 20.8814 11.16C16.2974 11.16 12.5774 14.892 12.5774 19.476C12.5774 19.836 12.6014 20.208 12.6494 20.568L11.7014 20.688C11.6534 20.292 11.6174 19.884 11.6174 19.476C11.6174 14.364 15.7814 10.2 20.8934 10.2C26.0054 10.2 30.1694 14.364 30.1694 19.476C30.1694 21.924 29.1614 24.252 27.3374 26.04C25.5854 27.768 23.2334 28.752 20.8934 28.752Z" fill="#0FC6C2"/>
<path d="M20.5094 15.1681C18.4454 15.1681 16.5254 14.1481 15.3614 12.4321L16.1534 11.8921C17.1374 13.3441 18.7574 14.2081 20.4974 14.2081C22.3334 14.2081 24.0014 13.2721 24.9614 11.7241L25.7774 12.2281C24.6494 14.0641 22.6814 15.1681 20.5094 15.1681ZM12.2596 18.2328L12.2625 17.2728L29.2665 17.3251L29.2636 18.2851L12.2596 18.2328Z" fill="#0FC6C2"/>
<path d="M26.4973 23.808L25.5613 23.592C25.8013 22.548 25.9213 21.444 25.9213 20.316C25.9213 17.868 25.3573 15.576 24.3253 13.86C23.3413 12.216 22.0693 11.316 20.7373 11.316C18.0253 11.316 15.7453 15 15.5653 19.704L14.6053 19.668C14.7013 17.184 15.3613 14.88 16.4533 13.152C17.5933 11.352 19.1173 10.356 20.7373 10.356C22.4293 10.356 23.9893 11.424 25.1533 13.368C26.2693 15.228 26.8813 17.7 26.8813 20.316C26.8813 21.528 26.7493 22.692 26.4973 23.808Z" fill="#0FC6C2"/>
<path d="M20.0294 11.1599H20.9894V20.4239H20.0294V11.1599ZM12.8534 29.3999L12.4814 21.6599L20.6174 21.9719L17.7494 24.7199L17.0894 24.0239L18.3254 22.8359L13.5014 22.6559L13.7174 27.2519L15.3614 25.6799L16.0214 26.3639L12.8534 29.3999Z" fill="#0FC6C2"/>
</svg>
