<svg width="15" height="14" viewBox="0 0 15 14" fill="none" xmlns="http://www.w3.org/2000/svg">
<path d="M12.9881 8.54703H11.8454V7.00348C11.8454 6.77693 11.6618 6.59332 11.4353 6.59332H7.8035V5.44803H8.93457C9.16111 5.44803 9.34473 5.26441 9.34473 5.03787V1.84521C9.34473 1.61867 9.16111 1.43506 8.93457 1.43506H5.74205C5.51551 1.43506 5.33189 1.61867 5.33189 1.84521V5.03787C5.33189 5.26441 5.51551 5.44803 5.74205 5.44803H6.98332V6.59332H3.24748C3.02094 6.59332 2.83732 6.77693 2.83732 7.00348V8.54703H1.68848C1.46193 8.54703 1.27832 8.73064 1.27832 8.95719V12.1498C1.27832 12.3764 1.46193 12.56 1.68848 12.56H4.88113C5.10768 12.56 5.29129 12.3764 5.29129 12.1498V8.95719C5.29129 8.73064 5.10768 8.54703 4.88113 8.54703H3.65764V7.41363H11.0251V8.54703H9.79549C9.56894 8.54703 9.38533 8.73064 9.38533 8.95719V12.1498C9.38533 12.3764 9.56894 12.56 9.79549 12.56H12.9881C13.2147 12.56 13.3983 12.3764 13.3983 12.1498V8.95719C13.3983 8.73064 13.2147 8.54703 12.9881 8.54703ZM6.15221 2.25537H8.52455V4.62771H6.15221V2.25537V2.25537ZM4.47098 11.7397H2.09863V9.36734H4.47098V11.7397V11.7397ZM12.578 11.7397H10.2056V9.36734H12.578V11.7397V11.7397Z" fill="#4E5969"/>
</svg>
