<svg width="14" height="14" viewBox="0 0 14 14" fill="none" xmlns="http://www.w3.org/2000/svg">
<path fill-rule="evenodd" clip-rule="evenodd" d="M5.31926 4.64591L3.91997 3.54352C4.57684 2.92246 5.42193 2.49065 6.41667 2.36853V3.93746H7.58333V2.36852C8.53875 2.4858 9.35568 2.88871 10.0005 3.4701L8.65384 4.66833L9.42937 5.53992L10.7629 4.35333C11.1756 4.96944 11.4494 5.68033 11.5588 6.41663H9.77077V7.58329H11.5918C11.4973 8.59315 11.0751 9.57846 10.265 10.3759L11.0835 11.2073C12.2946 10.015 12.8155 8.48258 12.7772 6.98503C12.741 5.574 12.2092 4.18583 11.2856 3.11829C10.2753 1.95058 8.79456 1.16663 7 1.16663C5.14241 1.16663 3.62215 2.0064 2.61113 3.24096C1.48099 4.62096 0.979258 6.50198 1.33223 8.2802C1.54268 9.3404 2.05684 10.361 2.91653 11.2073L3.735 10.3759C3.17794 9.82753 2.8058 9.19223 2.59625 8.52285L4.7328 7.68923L4.30874 6.60236L2.39221 7.35013C2.34732 6.33148 2.6294 5.30283 3.17774 4.444L4.59728 5.56234L5.31926 4.64591ZM4.95833 10.7916C4.95833 9.86674 5.57331 9.0855 6.41666 8.83451V5.54163H7.58333V8.83451C8.42668 9.0855 9.04166 9.86674 9.04166 10.7916C9.04166 11.9192 8.12758 12.8333 7 12.8333C5.87241 12.8333 4.95833 11.9192 4.95833 10.7916ZM6.125 10.7916C6.125 10.3084 6.51675 9.91663 7 9.91663C7.48325 9.91663 7.875 10.3084 7.875 10.7916C7.875 11.2749 7.48325 11.6666 7 11.6666C6.51675 11.6666 6.125 11.2749 6.125 10.7916Z" fill="#0FC6C2"/>
</svg>
