<svg width="15" height="14" viewBox="0 0 15 14" fill="none" xmlns="http://www.w3.org/2000/svg">
<path fill-rule="evenodd" clip-rule="evenodd" d="M5.25637 1.80732C5.36157 1.4286 5.70639 1.1665 6.09945 1.1665H8.57273C8.96579 1.1665 9.31061 1.4286 9.41581 1.80732L9.71408 2.88108L10.7932 2.60249C11.1738 2.50423 11.5732 2.67181 11.7697 3.01221L13.0063 5.15414C13.2029 5.49453 13.1483 5.92421 12.8729 6.20467L12.0922 6.99984L12.8729 7.79501C13.1483 8.07547 13.2029 8.50515 13.0063 8.84554L11.7697 10.9875C11.5732 11.3279 11.1738 11.4954 10.7932 11.3972L9.71408 11.1186L9.41581 12.1924C9.31061 12.5711 8.96579 12.8332 8.57273 12.8332H6.09945C5.70639 12.8332 5.36157 12.5711 5.25637 12.1924L4.95812 11.1187L3.87921 11.3972C3.49864 11.4954 3.09924 11.3279 2.90272 10.9875L1.66607 8.84554C1.46955 8.50515 1.52411 8.07547 1.79949 7.79501L2.58025 6.99984L1.7995 6.20467C1.52412 5.9242 1.46955 5.49453 1.66608 5.15413L2.90272 3.01221C3.09925 2.67181 3.49864 2.50423 3.87922 2.60249L4.95812 2.88103L5.25637 1.80732ZM4.88147 10.8427L4.88158 10.8431ZM6.32114 2.33317L6.00558 3.46921C5.87791 3.92882 5.40564 4.20148 4.94377 4.08224L3.80223 3.78753L2.78728 5.54548L3.61336 6.38681C3.94756 6.72717 3.94756 7.2725 3.61336 7.61287L2.78728 8.4542L3.80223 10.2121L4.94377 9.91743C5.40564 9.7982 5.87791 10.0709 6.00558 10.5305L6.32114 11.6665H8.35104L8.66662 10.5304C8.79429 10.0708 9.26656 9.79814 9.72843 9.91738L10.8702 10.2121L11.8851 8.4542L11.0591 7.61287C10.7249 7.2725 10.7249 6.72717 11.0591 6.38681L11.8851 5.54548L10.8702 3.78753L9.72843 4.0823C9.26656 4.20154 8.79429 3.92887 8.66662 3.46927L8.35104 2.33317H6.32114ZM7.33609 5.83317C6.69176 5.83317 6.16942 6.3555 6.16942 6.99984C6.16942 7.64417 6.69176 8.1665 7.33609 8.1665C7.98042 8.1665 8.50276 7.64417 8.50276 6.99984C8.50276 6.3555 7.98042 5.83317 7.33609 5.83317ZM5.00276 6.99984C5.00276 5.71117 6.04743 4.6665 7.33609 4.6665C8.62476 4.6665 9.66943 5.71117 9.66943 6.99984C9.66943 8.2885 8.62476 9.33317 7.33609 9.33317C6.04743 9.33317 5.00276 8.2885 5.00276 6.99984Z" fill="#4E5969"/>
</svg>
