<svg width="40" height="40" viewBox="0 0 40 40" fill="none" xmlns="http://www.w3.org/2000/svg">
<path d="M40 20C40 31.0457 31.0457 40 20 40C8.9543 40 0 31.0457 0 20C0 8.9543 8.9543 0 20 0C31.0457 0 40 8.9543 40 20Z" fill="#F6F7FB"/>
<path d="M19.6666 16.9523L18.238 16.2856L16.3333 20.7618H19.1904L18.238 23.0475L19.5713 23.7142L21.5713 19.238H18.619L19.6666 16.9523Z" fill="#0FC6C2"/>
<path d="M29.6665 25.5239V15.8096L27.7618 12.8572L26.5237 13.7144L28.1427 16.2858V24.0001H27.1904V18.2858H24.9046V11.7144H12.5237V26.381H10.9999V28.2858H26.6189V26.381H24.9999V19.8096H25.7618V25.5239H29.6665ZM14.5237 26.381V13.6191H23.0951V26.381H14.5237Z" fill="#0FC6C2"/>
</svg>
