<svg width="16" height="16" viewBox="0 0 16 16" fill="none" xmlns="http://www.w3.org/2000/svg">
<path fill-rule="evenodd" clip-rule="evenodd" d="M2.66634 7.99998C2.66634 5.05446 5.05416 2.66665 7.99967 2.66665C10.9452 2.66665 13.333 5.05446 13.333 7.99998C13.333 10.9455 10.9452 13.3333 7.99967 13.3333C5.05416 13.3333 2.66634 10.9455 2.66634 7.99998ZM7.99967 1.33331C4.31778 1.33331 1.33301 4.31808 1.33301 7.99998C1.33301 11.6819 4.31778 14.6666 7.99967 14.6666C11.6816 14.6666 14.6663 11.6819 14.6663 7.99998C14.6663 4.31808 11.6816 1.33331 7.99967 1.33331ZM6.86635 6.65951V6.50579C6.86715 6.32288 6.93256 6.11999 7.07851 5.96745C7.2133 5.82657 7.47603 5.66665 7.99585 5.66665C8.48399 5.66665 8.82343 5.8997 8.99654 6.1643C9.18141 6.44686 9.14498 6.68395 9.05724 6.8024C8.94782 6.95013 8.81196 7.08658 8.64776 7.23439C8.59781 7.27936 8.53623 7.33294 8.47021 7.39038L8.4702 7.3904C8.35214 7.49313 8.21987 7.60823 8.1144 7.70859C7.73991 8.06493 7.33313 8.56226 7.33313 9.33331L7.3353 9.67093L8.66861 9.66236L8.66648 9.33149C8.66698 9.10347 8.76044 8.93434 9.03351 8.67452C9.1253 8.58718 9.2078 8.5158 9.30221 8.43412L9.30225 8.43409C9.37208 8.37368 9.44841 8.30764 9.53983 8.22534C9.72995 8.05419 9.94152 7.84868 10.1287 7.59603C10.6341 6.91371 10.5159 6.05119 10.1123 5.43432C9.69697 4.79949 8.94129 4.33331 7.99585 4.33331C7.17769 4.33331 6.54338 4.59808 6.11512 5.04569C5.69824 5.48139 5.53453 6.03036 5.53302 6.50242V6.65951H6.86635ZM7.33529 10.3333V11.6692H8.66862V10.3333H7.33529Z" fill="#4E5969"/>
</svg>
