<svg width="15" height="14" viewBox="0 0 15 14" fill="none" xmlns="http://www.w3.org/2000/svg">
<path fill-rule="evenodd" clip-rule="evenodd" d="M1.50293 2.91667C1.50293 2.27234 2.02526 1.75 2.6696 1.75H12.0029C12.6473 1.75 13.1696 2.27233 13.1696 2.91667V11.0833C13.1696 11.7277 12.6473 12.25 12.0029 12.25H2.6696C2.02526 12.25 1.50293 11.7277 1.50293 11.0833V2.91667ZM12.0029 2.91667L2.6696 2.91667V11.0833H12.0029V2.91667ZM6.1696 5.54167H3.5446V4.375H6.1696V5.54167ZM6.1696 7.58333H3.5446V6.41667H6.1696V7.58333ZM5.00293 9.625H3.5446V8.45833H5.00293V9.625ZM8.7946 8.16667C7.98918 8.16667 7.33626 8.81958 7.33626 9.625H6.1696C6.1696 8.55345 6.81165 7.63185 7.73205 7.22395C7.31414 6.90414 7.0446 6.40021 7.0446 5.83333C7.0446 4.86683 7.8281 4.08333 8.7946 4.08333C9.76109 4.08333 10.5446 4.86683 10.5446 5.83333C10.5446 6.40021 10.2751 6.90414 9.85715 7.22395C10.7775 7.63185 11.4196 8.55345 11.4196 9.625H10.2529C10.2529 8.81958 9.60001 8.16667 8.7946 8.16667ZM8.21126 5.83333C8.21126 5.51117 8.47243 5.25 8.7946 5.25C9.11676 5.25 9.37793 5.51117 9.37793 5.83333C9.37793 6.1555 9.11676 6.41667 8.7946 6.41667C8.47243 6.41667 8.21126 6.1555 8.21126 5.83333Z" fill="#4E5969"/>
</svg>
