<svg width="40" height="40" viewBox="0 0 40 40" fill="none" xmlns="http://www.w3.org/2000/svg">
<path d="M40 20C40 31.0457 31.0457 40 20 40C8.9543 40 0 31.0457 0 20C0 8.9543 8.9543 0 20 0C31.0457 0 40 8.9543 40 20Z" fill="#F6F7FB"/>
<path d="M21.6665 10.5C22.0791 10.5 22.4747 10.6844 22.7665 11.0126C23.0582 11.3408 23.2221 11.7859 23.2221 12.25V16.5885H24.5554C25.1282 16.5885 25.6788 16.8373 26.0924 17.283C26.506 17.7287 26.7507 18.3368 26.7755 18.9805L26.7777 19.0885V24.375C26.7778 24.6008 26.8554 24.8177 26.9944 24.9806C27.1334 25.1434 27.3229 25.2396 27.5235 25.2489C27.724 25.2582 27.9199 25.1799 28.0703 25.0305C28.2207 24.881 28.314 24.672 28.3306 24.447L28.3333 24.375V15.3505C28.3333 15.2029 28.3042 15.0571 28.2482 14.9236C28.1922 14.7902 28.1106 14.6723 28.0093 14.5785L27.9515 14.5295L26.1435 13.116C26.0034 13.0058 25.9063 12.8393 25.8722 12.6509C25.8381 12.4625 25.8696 12.2666 25.9602 12.1035C26.0509 11.9405 26.1937 11.8229 26.3593 11.775C26.5248 11.7271 26.7003 11.7525 26.8497 11.846L26.9039 11.884L28.7124 13.2975C28.9918 13.5159 29.2229 13.8035 29.3878 14.1382C29.5528 14.4729 29.6473 14.8457 29.664 15.228L29.6666 15.3505V24.375C29.6665 24.9954 29.4506 25.5912 29.0651 26.0348C28.6796 26.4784 28.1551 26.7348 27.6037 26.7489C27.0524 26.7631 26.518 26.534 26.1149 26.1107C25.7117 25.6873 25.4719 25.1033 25.4466 24.4835L25.4443 24.375V19.0885C25.4443 18.8363 25.3595 18.5934 25.2071 18.4085C25.0546 18.2237 24.8456 18.1104 24.6221 18.0915L24.5554 18.0885H23.2221V28H24.5554C24.7212 28 24.8809 28.0695 25.0036 28.1948C25.1263 28.3202 25.2031 28.4924 25.219 28.678L25.2221 28.75C25.2221 28.9364 25.1604 29.1162 25.0489 29.2542C24.9375 29.3922 24.7844 29.4786 24.6194 29.4965L24.5554 29.5H10.333C10.1618 29.4999 9.99715 29.4257 9.87324 29.2928C9.74933 29.1599 9.67562 28.9784 9.6674 28.786C9.65917 28.5937 9.71705 28.4051 9.82904 28.2594C9.94104 28.1137 10.0986 28.0221 10.269 28.0035L10.333 28H11.6663V12.25C11.6663 11.7859 11.8302 11.3408 12.1219 11.0126C12.4137 10.6844 12.8093 10.5 13.2219 10.5H21.6665ZM21.6665 12H13.2219C13.163 12 13.1064 12.0263 13.0648 12.0732C13.0231 12.1201 12.9997 12.1837 12.9997 12.25V28H21.8887V12.25C21.8887 12.1837 21.8653 12.1201 21.8236 12.0732C21.782 12.0263 21.7254 12 21.6665 12ZM15.6664 20.75C15.1215 20.75 14.8148 20.06 15.1179 19.573L15.1544 19.52L17.3766 16.52C17.4861 16.3727 17.6417 16.2782 17.8112 16.256C17.9808 16.2338 18.1515 16.2857 18.2881 16.4009C18.4247 16.5161 18.5168 16.6859 18.5454 16.8752C18.574 17.0645 18.537 17.259 18.442 17.4185L18.4007 17.48L17.0895 19.25H19.2207C19.786 19.25 20.0949 19.9915 19.7331 20.48L17.5109 23.48C17.3972 23.631 17.2351 23.7254 17.0599 23.7426C16.8847 23.7597 16.7105 23.6983 16.5754 23.5717C16.4402 23.445 16.355 23.2634 16.3384 23.0664C16.3217 22.8695 16.3749 22.673 16.4864 22.52L17.7975 20.75H15.6664Z" fill="#0FC6C2"/>
</svg>
