<svg width="40" height="40" viewBox="0 0 40 40" fill="none" xmlns="http://www.w3.org/2000/svg">
<path d="M40 20C40 31.0457 31.0457 40 20 40C8.9543 40 0 31.0457 0 20C0 8.9543 8.9543 0 20 0C31.0457 0 40 8.9543 40 20Z" fill="#F6F7FB"/>
<path d="M17.1417 22.1335C17.5806 22.4236 18.0545 22.6598 18.556 22.8334L14.8378 27.4118H21.198L20.8475 29H14.8378C14.55 29 14.2684 28.9129 14.0261 28.749C13.7839 28.5852 13.5912 28.3514 13.4709 28.0755C13.3507 27.7996 13.3079 27.4931 13.3477 27.1923C13.3875 26.8914 13.5081 26.609 13.6953 26.3784L17.1417 22.1335ZM25.148 21.4908C25.3898 21.3617 25.6702 21.3393 25.9276 21.4285C26.185 21.5176 26.3983 21.7111 26.5207 21.9662L27.1225 23.2225L28.4555 23.4226C28.6546 23.4523 28.8407 23.5434 28.9901 23.6836L29.0518 23.7472C29.2385 23.9543 29.3396 24.2312 29.3329 24.517C29.3263 24.8029 29.2123 25.0742 29.0162 25.2714L28.0669 26.2248L28.2925 27.5785C28.3251 27.7771 28.3051 27.9809 28.2344 28.1662L28.1947 28.2578C28.071 28.5122 27.8566 28.7043 27.5988 28.7918C27.3409 28.8794 27.0606 28.8552 26.8196 28.7247L25.6089 28.0682L24.3982 28.7247C24.2291 28.8163 24.0391 28.8563 23.8496 28.8401L23.7553 28.8274C23.6231 28.8029 23.4968 28.7512 23.3836 28.6752C23.2704 28.5991 23.1725 28.5003 23.0955 28.3844C23.0184 28.2684 22.9638 28.1375 22.9347 27.9993C22.9056 27.861 22.9025 27.718 22.9258 27.5785L23.1505 26.2248L22.2021 25.2714C22.0568 25.1253 21.9554 24.9373 21.9107 24.7308L21.8947 24.6414C21.8567 24.3583 21.9268 24.0709 22.0895 23.8424C22.2522 23.6139 22.4942 23.4629 22.7623 23.4226L24.0953 23.2225L24.6971 21.9662C24.7819 21.7905 24.9098 21.6433 25.0673 21.539L25.148 21.4908ZM25.6094 23.1135L24.9524 24.4846L23.5231 24.6985L24.5562 25.7362L24.308 27.2259L25.6089 26.5218L26.9093 27.2259L26.6616 25.7362L27.6947 24.6985L26.2654 24.4846L25.6089 23.1135H25.6094ZM20.5937 11C23.3631 11 25.6089 13.3702 25.6089 16.2941C25.6089 19.2181 23.3631 21.5882 20.5937 21.5882C17.8233 21.5882 15.5785 19.2181 15.5785 16.2941C15.5785 13.3702 17.8233 11 20.5937 11ZM20.5937 12.5882C19.6626 12.5882 18.7697 12.9787 18.1113 13.6737C17.4529 14.3687 17.0831 15.3113 17.0831 16.2941C17.0831 17.277 17.4529 18.2196 18.1113 18.9146C18.7697 19.6096 19.6626 20 20.5937 20C21.5248 20 22.4177 19.6096 23.0761 18.9146C23.7345 18.2196 24.1043 17.277 24.1043 16.2941C24.1043 15.3113 23.7345 14.3687 23.0761 13.6737C22.4177 12.9787 21.5248 12.5882 20.5937 12.5882Z" fill="#0FC6C2"/>
</svg>
