<svg width="15" height="14" viewBox="0 0 15 14" fill="none" xmlns="http://www.w3.org/2000/svg">
<path fill-rule="evenodd" clip-rule="evenodd" d="M7.0389 2.33317C4.46157 2.33317 2.37223 4.42251 2.37223 6.99984C2.37223 9.57717 4.46157 11.6665 7.0389 11.6665C9.61623 11.6665 11.7056 9.57717 11.7056 6.99984C11.7056 4.42251 9.61623 2.33317 7.0389 2.33317ZM1.20557 6.99984C1.20557 3.77818 3.81724 1.1665 7.0389 1.1665C10.2606 1.1665 12.8722 3.77818 12.8722 6.99984C12.8722 10.2215 10.2606 12.8332 7.0389 12.8332C3.81724 12.8332 1.20557 10.2215 1.20557 6.99984ZM7.62223 4.08319V5.24986H6.45557V4.08319H7.62223ZM6.45557 9.91652V5.83319H7.62223V9.91652H6.45557Z" fill="#F53F3F"/>
</svg>
