<svg width="14" height="14" viewBox="0 0 14 14" fill="none" xmlns="http://www.w3.org/2000/svg">
<path fill-rule="evenodd" clip-rule="evenodd" d="M5.24992 4.37565C5.24992 3.40915 6.03342 2.62565 6.99992 2.62565C7.96642 2.62565 8.74992 3.40915 8.74992 4.37565C8.74992 5.34215 7.96642 6.12565 6.99992 6.12565C6.03342 6.12565 5.24992 5.34215 5.24992 4.37565ZM6.99992 1.45898C5.38909 1.45898 4.08325 2.76482 4.08325 4.37565C4.08325 5.98648 5.38909 7.29232 6.99992 7.29232C8.61075 7.29232 9.91659 5.98648 9.91659 4.37565C9.91659 2.76482 8.61075 1.45898 6.99992 1.45898ZM4.66659 7.87565C3.82704 7.87565 3.03045 8.13148 2.43354 8.63676C1.82737 9.14988 1.45825 9.89616 1.45825 10.7923V11.6673C1.45825 12.1506 1.85 12.5423 2.33325 12.5423H11.6666C12.1498 12.5423 12.5416 12.1506 12.5416 11.6673V10.7923C12.5416 9.89616 12.1725 9.14988 11.5663 8.63676C10.9694 8.13148 10.1728 7.87565 9.33325 7.87565H4.66659ZM2.62492 10.7923C2.62492 10.2387 2.84342 9.81834 3.18732 9.52723C3.54047 9.22828 4.05638 9.04232 4.66659 9.04232H9.33325C9.94346 9.04232 10.4594 9.22828 10.8125 9.52723C11.1564 9.81834 11.3749 10.2387 11.3749 10.7923V11.3757H2.62492V10.7923Z" fill="#4E5969"/>
</svg>
