<svg width="14" height="14" viewBox="0 0 14 14" fill="none" xmlns="http://www.w3.org/2000/svg">
<path fill-rule="evenodd" clip-rule="evenodd" d="M1.16669 2.625C1.16669 2.14175 1.55844 1.75 2.04169 1.75H11.9584C12.4416 1.75 12.8334 2.14175 12.8334 2.625V9.04167C12.8334 9.52492 12.4416 9.91667 11.9584 9.91667H7.58335V11.0833H9.62502V12.25H4.37502V11.0833H6.41669V9.91667H2.04169C1.55844 9.91667 1.16669 9.52492 1.16669 9.04167V2.625ZM2.33335 2.91667V8.75H11.6667V2.91667H2.33335Z" fill="#4E5969"/>
<path d="M7.89959 7.7183C7.88181 7.7183 7.86541 7.71693 7.84763 7.71419C7.70955 7.69369 7.5947 7.59525 7.55369 7.46126L6.80857 5.00306L5.51384 6.80228C5.45095 6.88978 5.35115 6.94583 5.24177 6.9513C5.13377 6.95814 5.02849 6.91576 4.95466 6.83509L4.12478 5.93275L3.61209 6.51244C3.47947 6.66146 3.25115 6.67513 3.10213 6.54251C2.9531 6.4099 2.93943 6.18158 3.07205 6.03255L3.85134 5.15619C3.9197 5.07962 4.01677 5.03587 4.11795 5.03451C4.21775 5.03451 4.31756 5.07552 4.38728 5.15072L5.18709 6.02025L6.64998 3.98861C6.73064 3.8765 6.86736 3.82044 7.00271 3.84369C7.13806 3.86693 7.24881 3.964 7.28982 4.09525L8.02263 6.51517L9.22439 4.69271C9.29412 4.58607 9.41443 4.52455 9.54295 4.53138C9.67009 4.53685 9.78494 4.60931 9.84509 4.72142L10.7666 6.43998C10.8609 6.61634 10.7939 6.83509 10.6189 6.92943C10.4426 7.02376 10.2238 6.95677 10.1295 6.78177L9.49373 5.59642L8.20174 7.5556C8.13338 7.65814 8.0199 7.7183 7.89959 7.7183V7.7183Z" fill="#4E5969"/>
</svg>
